<svg width="30" height="30" viewBox="0 0 30 30" fill="none" xmlns="http://www.w3.org/2000/svg">
<g clip-path="url(#clip0_1_7)">
<path d="M29.3629 11.2429H1.85261C1.50748 11.2429 1.22736 11.523 1.22736 11.8682V26.8737C1.22736 28.5969 2.62915 29.9999 4.3535 29.9999H26.8619C28.5863 29.9999 29.988 28.5969 29.988 26.8737V11.8682C29.9881 11.523 29.708 11.2429 29.3629 11.2429ZM28.7376 26.8737C28.7376 27.9078 27.8961 28.7494 26.8619 28.7494H4.35356C3.3194 28.7494 2.47786 27.9078 2.47786 26.8737V12.4934H28.7376V26.8737Z" fill="white"/>
<path d="M29.9681 5.4571L28.9039 1.41937C28.6588 0.437737 27.656 -0.178723 26.6619 0.0463609L1.46997 6.02356C0.97479 6.1361 0.555865 6.43744 0.289516 6.87014C0.0231675 7.30278 -0.0556117 7.81297 0.0694152 8.30816L1.24735 12.9649C1.3174 13.2475 1.57249 13.4363 1.85256 13.4363C1.90256 13.4363 1.95384 13.4313 2.0076 13.4176C2.34147 13.3338 2.54404 12.9936 2.45899 12.6585L2.39024 12.3872L29.5015 6.22742C29.6666 6.18868 29.8104 6.0861 29.898 5.94109C29.9868 5.79601 30.0106 5.62093 29.9681 5.4571ZM2.08397 11.1742L1.28117 8.0043C1.23991 7.83923 1.2674 7.66919 1.35497 7.52412C1.44377 7.38033 1.58381 7.28028 1.75385 7.24024L26.9457 1.26433C26.9907 1.25308 27.0369 1.2481 27.082 1.2481C27.3621 1.2481 27.6209 1.44065 27.6922 1.72951L28.5938 5.14954L2.08397 11.1742Z" fill="white"/>
<path d="M7.13458 11.3081C6.82444 11.1568 6.45182 11.2793 6.29427 11.5882L3.79332 16.59C3.63951 16.8989 3.76454 17.274 4.07344 17.4291C4.16471 17.4741 4.25978 17.4954 4.35356 17.4954C4.5824 17.4954 4.80373 17.3691 4.91375 17.1491L7.4147 12.1472C7.56851 11.8383 7.44342 11.4631 7.13458 11.3081Z" fill="white"/>
<path d="M13.3857 11.3081C13.0768 11.1568 12.7017 11.2793 12.5466 11.5882L10.0456 16.59C9.89183 16.8989 10.0169 17.274 10.3258 17.4291C10.417 17.4741 10.5121 17.4954 10.6059 17.4954C10.8347 17.4954 11.0561 17.3691 11.1648 17.1491L13.6658 12.1472C13.8195 11.8383 13.6945 11.4631 13.3857 11.3081Z" fill="white"/>
<path d="M19.6379 11.3081C19.3303 11.1568 18.9552 11.2793 18.7988 11.5882L16.2979 16.59C16.1441 16.8989 16.2691 17.274 16.578 17.4291C16.6693 17.4741 16.7644 17.4954 16.8581 17.4954C17.087 17.4954 17.3083 17.3691 17.4171 17.1491L19.918 12.1472C20.0718 11.8383 19.9468 11.4631 19.6379 11.3081Z" fill="white"/>
<path d="M25.8903 11.3081C25.5802 11.1568 25.2076 11.2793 25.0512 11.5882L22.5503 16.59C22.3965 16.8989 22.5215 17.274 22.8304 17.4291C22.9217 17.4741 23.0167 17.4954 23.1105 17.4954C23.3394 17.4954 23.5607 17.3691 23.6695 17.1491L26.1704 12.1472C26.3242 11.8383 26.1992 11.4631 25.8903 11.3081Z" fill="white"/>
<path d="M29.3629 16.2449H1.85261C1.50748 16.2449 1.22736 16.525 1.22736 16.8701C1.22736 17.2153 1.50748 17.4954 1.85261 17.4954H29.3629C29.7092 17.4954 29.9881 17.2153 29.9881 16.8701C29.9881 16.525 29.708 16.2449 29.3629 16.2449Z" fill="white"/>
<path d="M7.8986 10.1513L3.592 5.84475C3.34816 5.60091 2.95175 5.60091 2.7079 5.84475C2.46406 6.08859 2.46406 6.485 2.7079 6.72884L7.0145 11.0367C7.13707 11.1579 7.29709 11.2193 7.45717 11.2193C7.61724 11.2193 7.77727 11.158 7.8986 11.0354C8.14244 10.7915 8.14244 10.3952 7.8986 10.1513Z" fill="white"/>
<path d="M14.0158 8.76218L9.70553 4.45559C9.46169 4.21174 9.06527 4.21174 8.82143 4.45559C8.57759 4.69943 8.57759 5.09584 8.82143 5.33968L13.1305 9.64628C13.2531 9.76756 13.4131 9.82887 13.5732 9.82887C13.7333 9.82887 13.8933 9.76762 14.0159 9.64628C14.2597 9.40244 14.2597 9.00602 14.0158 8.76218Z" fill="white"/>
<path d="M20.1282 7.37279L15.8253 3.06496C15.5815 2.82112 15.1851 2.82112 14.9412 3.06496C14.6974 3.3088 14.6974 3.70522 14.9412 3.94906L19.2441 8.25689C19.3667 8.37816 19.5267 8.43948 19.6868 8.43948C19.8468 8.43948 20.0069 8.37945 20.1282 8.25689C20.372 8.01305 20.372 7.61663 20.1282 7.37279Z" fill="white"/>
<path d="M26.2379 5.98485L21.9338 1.67702C21.69 1.43318 21.2935 1.43318 21.0497 1.67702C20.8059 1.92086 20.8059 2.31728 21.0497 2.56112L25.3538 6.86895C25.4763 6.99022 25.6364 7.05154 25.7964 7.05154C25.9565 7.05154 26.1165 6.99028 26.2379 6.86895C26.4818 6.62511 26.4818 6.22869 26.2379 5.98485Z" fill="white"/>
</g>
<defs>
<clipPath id="clip0_1_7">
<rect width="30" height="30" fill="white"/>
</clipPath>
</defs>
</svg>
